<svg width="301" height="277" viewBox="0 0 301 277" fill="none" xmlns="http://www.w3.org/2000/svg">
<g clip-path="url(#clip0_103_1900)">
<path opacity="0.4" d="M150.173 277C233.111 277 300.346 273.074 300.346 268.232C300.346 263.39 233.111 259.465 150.173 259.465C67.2348 259.465 0 263.39 0 268.232C0 273.074 67.2348 277 150.173 277Z" fill="#47B0AA"/>
<path d="M252.147 242.378H133.273C130.213 242.378 127.929 239.9 128.169 236.833L143.156 44.5642C143.396 41.5048 146.068 39.0186 149.127 39.0186H268.01C271.069 39.0186 273.354 41.497 273.114 44.5642L258.127 236.833C257.886 239.892 255.214 242.378 252.155 242.378H252.147Z" fill="#0A5960"/>
<path d="M236.045 51.5971H179.117C178.048 51.5971 177.25 50.7296 177.336 49.6608L178.211 38.4224C178.296 37.3536 179.225 36.4861 180.302 36.4861H237.23C238.299 36.4861 239.096 37.3536 239.011 38.4224L238.136 49.6608C238.051 50.7296 237.121 51.5971 236.045 51.5971Z" fill="#0A5960"/>
<path opacity="0.2" d="M236.045 51.5971H179.117C178.048 51.5971 177.25 50.7296 177.336 49.6608L178.211 38.4224C178.296 37.3536 179.225 36.4861 180.302 36.4861H237.23C238.299 36.4861 239.096 37.3536 239.011 38.4224L238.136 49.6608C238.051 50.7296 237.121 51.5971 236.045 51.5971Z" fill="black"/>
<path d="M212.94 39.9715H204.033L204.382 35.518C204.575 33.055 206.721 31.0645 209.184 31.0645C211.647 31.0645 213.482 33.0627 213.289 35.518L212.94 39.9715Z" fill="#0A5960"/>
<path opacity="0.4" d="M212.94 39.9715H204.033L204.382 35.518C204.575 33.055 206.721 31.0645 209.184 31.0645C211.647 31.0645 213.482 33.0627 213.289 35.518L212.94 39.9715Z" fill="white"/>
<path d="M250.544 234.355H136.115L150.715 47.051H265.144L250.544 234.355Z" fill="white"/>
<path d="M225.457 56.8485H188.884C186.366 56.8485 184.484 54.8038 184.678 52.2788L185.143 46.3305C185.336 43.8132 187.544 41.7607 190.061 41.7607H226.634C229.151 41.7607 231.033 43.8055 230.84 46.3305L230.375 52.2788C230.181 54.796 227.974 56.8485 225.457 56.8485ZM189.937 43.3175C188.272 43.3175 186.816 44.673 186.692 46.3305L186.227 52.2788C186.095 53.9441 187.342 55.2917 189.008 55.2917H225.581C227.246 55.2917 228.702 53.9363 228.826 52.2788L229.291 46.3305C229.422 44.6652 228.175 43.3175 226.51 43.3175H189.937Z" fill="#0A5960"/>
<g opacity="0.4">
<path d="M225.457 56.849H188.883C186.366 56.849 184.484 54.8043 184.678 52.2793L185.142 46.3309C185.336 43.8137 187.544 41.7612 190.061 41.7612H226.634C229.151 41.7612 231.033 43.806 230.84 46.3309L230.375 52.2793C230.181 54.7965 227.974 56.849 225.457 56.849ZM189.937 43.318C188.272 43.318 186.815 44.6735 186.692 46.3309L186.227 52.2793C186.095 53.9445 187.342 55.2922 189.007 55.2922H225.581C227.246 55.2922 228.702 53.9368 228.826 52.2793L229.291 46.3309C229.422 44.6657 228.175 43.318 226.51 43.318H189.937Z" fill="white"/>
</g>
<path d="M223.566 45.1999H192.585C191.997 45.1999 191.555 44.7197 191.602 44.1311L191.842 41.033C191.888 40.4443 192.4 39.9641 192.988 39.9641H223.969C224.558 39.9641 224.999 40.4443 224.953 41.033L224.713 44.1311C224.666 44.7197 224.155 45.1999 223.566 45.1999Z" fill="#0A5960"/>
<path d="M249.8 74.4151H163.053L163.789 64.9426H250.536L249.8 74.4151Z" fill="#4DBCB6"/>
<path d="M214.691 87.5898H156.942L157.136 85.1423H214.884L214.691 87.5898Z" fill="#4DBCB6"/>
<path d="M214.141 94.6377H156.392L156.586 92.1902H214.335L214.141 94.6377Z" fill="#4DBCB6"/>
<path d="M213.592 101.678H155.851L156.036 99.2385H213.785L213.592 101.678Z" fill="#4DBCB6"/>
<path d="M213.049 108.727H155.3L155.486 106.279H213.235L213.049 108.727Z" fill="#4DBCB6"/>
<path d="M250.939 108.726H227.378L229.213 85.1421H252.774L250.939 108.726Z" fill="#4DBCB6"/>
<path d="M211.91 123.273H154.161L154.355 120.825H212.104L211.91 123.273Z" fill="#4DBCB6"/>
<path d="M211.36 130.313H153.611L153.805 127.873H211.553L211.36 130.313Z" fill="#4DBCB6"/>
<path d="M210.81 137.361H153.062L153.255 134.914H211.004L210.81 137.361Z" fill="#4DBCB6"/>
<path d="M210.268 144.402H152.519L152.705 141.962H210.454L210.268 144.402Z" fill="#4DBCB6"/>
<path d="M248.159 144.401H224.597L226.433 120.824H249.994L248.159 144.401Z" fill="#4DBCB6"/>
<path d="M209.13 158.947H151.381L151.575 156.499H209.324L209.13 158.947Z" fill="#4DBCB6"/>
<path d="M208.58 165.994H150.831L151.025 163.547H208.774L208.58 165.994Z" fill="#4DBCB6"/>
<path d="M208.031 173.035H150.282L150.476 170.595H208.224L208.031 173.035Z" fill="#4DBCB6"/>
<path d="M207.48 180.084H149.731L149.925 177.636H207.674L207.48 180.084Z" fill="#4DBCB6"/>
<path d="M245.378 180.084H221.816L223.652 156.507H247.213L245.378 180.084Z" fill="#4DBCB6"/>
<path d="M206.349 194.629H148.6L148.794 192.181H206.543L206.349 194.629Z" fill="#4DBCB6"/>
<path d="M205.799 201.669H148.051L148.244 199.229H205.993L205.799 201.669Z" fill="#4DBCB6"/>
<path d="M205.249 208.718H147.5L147.694 206.27H205.443L205.249 208.718Z" fill="#4DBCB6"/>
<path d="M204.699 215.758H146.95L147.144 213.318H204.893L204.699 215.758Z" fill="#4DBCB6"/>
<path d="M242.597 215.758H219.036L220.872 192.181H244.433L242.597 215.758Z" fill="#4DBCB6"/>
<path d="M111.447 144.897V166.227C111.447 170.433 109.828 174.476 106.916 177.512L87.0024 198.339H98.2718L118.952 177.985C122.073 174.918 123.831 170.72 123.831 166.344V144.897H111.439H111.447Z" fill="#0A5960"/>
<path opacity="0.4" d="M123.839 144.897V166.344C123.839 167.56 123.707 168.752 123.436 169.914C122.762 172.958 121.221 175.77 118.959 177.985L98.2796 198.339H87.0103L106.916 177.512C109.828 174.476 111.447 170.433 111.447 166.227V144.897H123.839Z" fill="white"/>
<path opacity="0.2" d="M123.839 144.897V166.344C123.839 167.56 123.707 168.752 123.436 169.914L111.446 165.073V144.897H123.839Z" fill="black"/>
<path d="M79.1801 200.663L62.5045 264.22C62.1947 265.405 61.1181 266.234 59.8944 266.234H30.0828C29.5794 266.234 29.1224 266.01 28.8126 265.607C28.5028 265.212 28.4021 264.701 28.5338 264.22L45.2248 200.655H42.0183L25.5364 263.43C25.1646 264.848 25.4667 266.335 26.3651 267.497C27.2636 268.658 28.619 269.325 30.0906 269.325H59.9021C62.5355 269.325 64.8436 267.543 65.5097 264.995L82.3944 200.647H79.1878L79.1801 200.663Z" fill="#0A5960"/>
<g opacity="0.7">
<path d="M79.1801 200.663L62.5045 264.221C62.1947 265.406 61.1181 266.235 59.8944 266.235H30.0828C29.5794 266.235 29.1224 266.01 28.8126 265.607C28.5028 265.212 28.4021 264.701 28.5338 264.221L45.2248 200.655H42.0183L25.5364 263.431C25.1646 264.848 25.4667 266.335 26.3651 267.497C27.2636 268.659 28.619 269.325 30.0906 269.325H59.9021C62.5355 269.325 64.8436 267.544 65.5097 264.995L82.3944 200.648H79.1878L79.1801 200.663Z" fill="white"/>
</g>
<path d="M86.0029 269.333L67.7628 199.78L64.7654 200.57L82.7964 269.333H86.0029Z" fill="#0A5960"/>
<path d="M123.181 269.333L104.941 199.78L101.943 200.57L119.974 269.333H123.181Z" fill="#0A5960"/>
<g opacity="0.7">
<path d="M86.0029 269.333L67.7628 199.781L64.7654 200.571L73.7809 234.952L82.7964 269.333H86.0029Z" fill="white"/>
</g>
<g opacity="0.7">
<path d="M123.181 269.333L104.941 199.781L101.943 200.571L119.974 269.333H123.181Z" fill="white"/>
</g>
<path opacity="0.2" d="M42.01 200.663H45.2166L42.6993 210.244L39.7329 209.337L42.01 200.663Z" fill="black"/>
<path opacity="0.2" d="M67.7628 199.788L71.9065 215.596L68.4289 214.542L64.7654 200.57L67.7628 199.788Z" fill="black"/>
<path opacity="0.2" d="M79.1793 200.663H82.3781L77.1268 220.723L74.1526 219.817L79.1793 200.663Z" fill="black"/>
<path opacity="0.2" d="M112.26 227.887L108.767 226.818L101.943 200.763L104.941 199.911L112.26 227.887Z" fill="black"/>
<path d="M39.183 201.724L24.6684 123.318L24.4747 122.133C24.1959 120.615 24.5754 119.074 25.5203 117.943C26.4343 116.843 27.7587 116.239 29.2458 116.239H60.5987C63.4876 116.239 66.2837 118.648 66.8414 121.599L67.0737 122.923L81.5496 201.15L78.5057 201.716L63.9833 123.248L63.7897 122.149C63.5109 120.662 62.016 119.337 60.5987 119.337H29.2458C28.6882 119.337 28.2234 119.538 27.8981 119.926C27.5419 120.352 27.4102 120.964 27.5264 121.606L27.7432 122.908L42.2346 201.166L39.1907 201.731L39.183 201.724Z" fill="#0A5960"/>
<g opacity="0.7">
<path d="M39.183 201.724L24.6684 123.318L24.4747 122.133C24.1959 120.615 24.5754 119.074 25.5203 117.943C26.4343 116.843 27.7587 116.239 29.2458 116.239H60.5987C63.4876 116.239 66.2837 118.648 66.8414 121.599L67.0737 122.923L81.5496 201.15L78.5057 201.716L63.9833 123.248L63.7897 122.149C63.5109 120.662 62.016 119.337 60.5987 119.337H29.2458C28.6882 119.337 28.2234 119.538 27.8981 119.926C27.5419 120.352 27.4102 120.964 27.5264 121.606L27.7432 122.908L42.2346 201.166L39.1907 201.731L39.183 201.724Z" fill="white"/>
</g>
<path d="M45.5189 193.948H105.103C107.241 193.948 108.976 195.682 108.976 197.82V203.002H41.6462V197.82C41.6462 195.682 43.3812 193.948 45.5189 193.948Z" fill="#7CB9BC"/>
<path d="M109.905 198.479H40.7167C39.8569 198.479 39.1599 199.176 39.1599 200.035V201.445C39.1599 202.305 39.8569 203.002 40.7167 203.002H109.905C110.765 203.002 111.462 202.305 111.462 201.445V200.035C111.462 199.176 110.765 198.479 109.905 198.479Z" fill="#0A5960"/>
<path opacity="0.6" d="M109.905 198.479H40.7167C39.8569 198.479 39.1599 199.176 39.1599 200.035V201.445C39.1599 202.305 39.8569 203.002 40.7167 203.002H109.905C110.765 203.002 111.462 202.305 111.462 201.445V200.035C111.462 199.176 110.765 198.479 109.905 198.479Z" fill="white"/>
<path d="M71.4264 154.966H32.0572L26.1863 123.21H65.5477L71.3722 154.672L71.4264 154.966Z" fill="#7CB9BC"/>
<path d="M110.153 87.2949C110.153 87.2949 105.203 75.8009 104.77 74.5694C104.336 73.3379 104.847 67.1185 104.475 66.0109C104.104 64.9033 98.3412 64.1753 97.1252 64.3147C95.9091 64.4541 96.9857 74.0737 97.4814 74.8328C97.9849 75.5995 99.6888 76.9395 99.6888 76.9395L104.065 90.1374L110.145 87.2949H110.153Z" fill="#B97964"/>
<path d="M85.089 108.99C88.466 109.524 102.291 111.515 105.382 109.462C107.876 107.797 100.851 80.8355 100.851 80.8355L107.101 78.2874C107.101 78.2874 121.949 110.98 114.018 118.454C109.99 122.25 98.6665 123.21 82.3782 123.21L85.089 108.99Z" fill="#0A5960"/>
<path opacity="0.9" d="M85.089 108.99C88.466 109.524 102.291 111.515 105.382 109.462C107.876 107.797 100.851 80.8355 100.851 80.8355L107.101 78.2874C107.101 78.2874 121.949 110.98 114.018 118.454C109.99 122.25 98.6665 123.21 82.3782 123.21L85.089 108.99Z" fill="white"/>
<path opacity="0.1" d="M90.8363 123.101C88.4353 123.171 85.8716 123.202 83.1763 123.202L85.4999 114.303C85.4999 114.303 89.4344 117.819 90.8363 123.101Z" fill="black"/>
<path d="M104.607 127.85L120.996 145.176" stroke="#2E353A" stroke-width="1.21152" stroke-miterlimit="10"/>
<path d="M92.8582 138.05C92.8582 138.05 105.367 137.663 106.668 137.531C107.969 137.399 113.383 134.301 114.545 134.177C115.707 134.046 118.805 138.956 119.192 140.118C119.579 141.28 110.417 144.378 109.51 144.246C108.604 144.115 106.668 143.139 106.668 143.139L92.8582 144.765V138.05Z" fill="#B97964"/>
<path d="M85.4998 263.267L91.6727 262.415L92.5247 247.754L86.3672 248.606L85.4998 263.267Z" fill="#B97964"/>
<path d="M92.1372 261.673L85.1665 261.239C84.9264 261.216 84.7095 261.386 84.6785 261.634L83.9969 267.141C83.9582 267.745 84.4152 268.264 85.0116 268.303C87.4436 268.411 88.6131 268.349 91.6802 268.512C93.5623 268.628 97.2723 269.023 99.8747 268.775C102.469 268.527 102.152 265.964 101.037 265.84C98.3721 265.538 94.848 263.578 93.1906 262.099C92.8962 261.843 92.5322 261.696 92.1449 261.673H92.1372Z" fill="#2E353A"/>
<path d="M94.2756 262.865C93.718 262.818 93.1681 262.71 92.6336 262.54C92.5794 262.524 92.533 262.478 92.533 262.423C92.533 262.369 92.5562 262.315 92.5949 262.276C92.804 262.152 94.6397 261.06 95.3832 261.401C95.5536 261.486 95.6698 261.649 95.693 261.835C95.7782 262.121 95.693 262.431 95.4684 262.633C95.1199 262.857 94.6939 262.942 94.2834 262.865H94.2756ZM95.2593 261.695C94.8643 261.509 93.7954 261.966 93.0441 262.377C94.144 262.664 94.9572 262.679 95.267 262.416C95.3987 262.284 95.4529 262.09 95.4065 261.904C95.3987 261.812 95.3367 261.734 95.2593 261.695Z" fill="#0A5960"/>
<path d="M92.6647 262.547C92.6647 262.547 92.626 262.555 92.6028 262.547C92.564 262.524 92.5331 262.477 92.5331 262.431C92.5331 262.377 92.5098 260.557 93.1682 259.991C93.3463 259.844 93.5787 259.79 93.8033 259.829C94.0589 259.852 94.2603 260.045 94.299 260.301C94.3997 260.983 93.3928 262.23 92.7499 262.555C92.7267 262.563 92.6957 262.555 92.6725 262.547H92.6647ZM93.6716 260.131C93.5554 260.123 93.4393 260.162 93.3541 260.247C92.9513 260.588 92.8506 261.602 92.8274 262.191C93.3928 261.773 94.0434 260.828 94.0047 260.371C94.0047 260.285 93.9504 260.185 93.7413 260.146H93.6716V260.131Z" fill="#0A5960"/>
<path opacity="0.2" d="M86.3679 248.606L92.5254 247.762L92.0374 256.142L85.8877 256.684L86.3679 248.606Z" fill="black"/>
<path d="M85.7482 177.047L84.2456 167.613L49.6552 165.545C49.6552 165.545 45.9762 185.171 48.8032 190.399C53.8454 199.733 81.0391 195.023 88.9934 195.937C84.2378 215.386 84.7026 253.392 84.7026 253.392L96.0649 254.259C96.0649 254.259 104.809 213.302 106.575 193.846C107.768 180.718 96.8859 181.043 85.7482 177.047Z" fill="#2E353A"/>
<path d="M83.3698 253.927L97.0247 254.826L98.1942 248.978L83.1917 248.281L83.3698 253.927Z" fill="#7CB9BC"/>
<path d="M99.7361 257.784L105.948 258.241L109.836 244.075L103.632 243.626L99.7361 257.784Z" fill="#B97964"/>
<path d="M106.56 257.613L99.829 255.739C99.5966 255.661 99.3488 255.785 99.2713 256.017L97.4589 261.253C97.2963 261.834 97.6293 262.438 98.2102 262.601C100.565 263.221 101.727 263.391 104.693 264.196C106.513 264.7 110.06 265.862 112.647 266.156C115.242 266.45 115.467 263.879 114.39 263.523C111.85 262.671 108.813 260.03 107.489 258.225C107.257 257.915 106.924 257.69 106.552 257.59L106.56 257.613Z" fill="#2E353A"/>
<path d="M108.394 259.225C107.86 259.062 107.341 258.838 106.853 258.567C106.799 258.543 106.768 258.489 106.775 258.435C106.775 258.381 106.814 258.327 106.868 258.303C107.101 258.226 109.122 257.544 109.773 258.032C109.92 258.148 110.005 258.334 109.982 258.52C110.005 258.822 109.85 259.101 109.595 259.248C109.207 259.395 108.774 259.388 108.386 259.233L108.394 259.225ZM109.602 258.288C109.254 258.025 108.115 258.249 107.294 258.497C108.309 259.008 109.107 259.194 109.463 258.993C109.618 258.892 109.711 258.714 109.703 258.52C109.711 258.427 109.672 258.334 109.602 258.28V258.288Z" fill="#0A5960"/>
<path d="M106.884 258.574C106.884 258.574 106.838 258.574 106.822 258.574C106.791 258.543 106.768 258.489 106.776 258.443C106.791 258.388 107.14 256.607 107.899 256.189C108.1 256.088 108.34 256.073 108.549 256.158C108.789 256.235 108.952 256.468 108.937 256.723C108.89 257.413 107.643 258.419 106.954 258.605C106.923 258.605 106.9 258.605 106.876 258.582L106.884 258.574ZM108.379 256.421C108.263 256.39 108.147 256.406 108.046 256.468C107.589 256.716 107.271 257.691 107.124 258.257C107.759 257.962 108.596 257.18 108.65 256.723C108.658 256.638 108.635 256.53 108.441 256.444L108.371 256.421H108.379Z" fill="#0A5960"/>
<path opacity="0.2" d="M103.632 243.626L109.836 244.083L107.613 252.184L101.479 251.425L103.632 243.626Z" fill="black"/>
<path d="M111.942 251.185L101.006 247.971C101.006 247.971 107.535 211.119 114.157 198.34C113.662 198.177 113.003 197.968 112.19 197.728C110.726 197.286 108.782 196.736 106.497 196.101C90.6039 191.694 58.3914 183.43 58.3914 183.43L73.1074 169.698C73.1074 169.698 131.724 178.636 132.94 194.08C133.52 201.507 111.942 251.185 111.942 251.185Z" fill="#2E353A"/>
<path d="M99.5959 248.211L112.763 251.936L115.125 246.46L100.595 242.649L99.5959 248.211Z" fill="#7CB9BC"/>
<path opacity="0.2" d="M112.19 197.727C110.726 197.286 108.782 196.736 106.497 196.101C106.954 192.352 106.962 188.053 105.157 185.862C101.571 181.493 92.3463 178.93 87.095 178C82.7035 177.226 67.9487 175.684 67.9487 175.684C67.9487 175.684 87.095 173.849 106.667 179.557C116.341 182.384 114.459 191.841 112.19 197.727Z" fill="black"/>
<path d="M85.0891 108.989C85.0891 108.989 90.108 127.578 84.2448 167.613C73.3163 167.381 54.9522 166.955 49.6312 166.839C49.4996 161.262 53.6123 133.937 48.8025 107.58C52.2646 106.975 55.7655 106.635 59.2818 106.542C64.4247 106.356 69.5753 106.464 74.7027 106.875C78.2113 107.308 81.6889 108.013 85.0891 108.989Z" fill="#0A5960"/>
<path opacity="0.9" d="M85.0891 108.989C85.0891 108.989 90.108 127.578 84.2448 167.613C73.3163 167.381 54.9522 166.955 49.6312 166.839C49.4996 161.262 53.6123 133.937 48.8025 107.58C52.2646 106.975 55.7655 106.635 59.2818 106.542C64.4247 106.356 69.5753 106.464 74.7027 106.875C78.2113 107.308 81.6889 108.013 85.0891 108.989Z" fill="white"/>
<path opacity="0.1" d="M60.9707 141.543C57.8959 140.861 54.1781 137.879 51.1342 134.936C51.111 129.7 50.8786 124.132 50.3132 118.454C54.6196 124.829 66.284 142.713 60.9707 141.543Z" fill="black"/>
<path d="M48.8025 107.579C36.96 111.847 57.7483 143.912 64.2001 147.22C70.6519 150.527 103.445 143.603 103.445 143.603L102.152 136.973C102.152 136.973 73.1382 137.716 70.4661 137.035C67.7939 136.361 61.4428 122.69 57.7871 116.239C54.1313 109.787 48.8025 107.579 48.8025 107.579Z" fill="#0A5960"/>
<path opacity="0.8" d="M48.8025 107.579C36.96 111.847 57.7483 143.912 64.2001 147.22C70.6519 150.527 103.445 143.603 103.445 143.603L102.152 136.973C102.152 136.973 73.1382 137.716 70.4661 137.035C67.7939 136.361 61.4428 122.69 57.7871 116.239C54.1313 109.787 48.8025 107.579 48.8025 107.579Z" fill="white"/>
<path d="M99.8293 136.377L101.51 145.176L104.608 144.122L103.446 136.377H99.8293Z" fill="#0A5960"/>
<path opacity="0.7" d="M99.8293 136.377L101.51 145.176L104.608 144.122L103.446 136.377H99.8293Z" fill="white"/>
<path d="M100.665 82.7558L108.999 79.464L107.373 76.6138L99.9839 79.2084L100.665 82.7558Z" fill="#0A5960"/>
<path opacity="0.7" d="M100.665 82.7558L108.999 79.464L107.373 76.6138L99.9839 79.2084L100.665 82.7558Z" fill="white"/>
<path opacity="0.1" d="M57.4159 106.612C57.4159 106.612 57.6328 110.229 64.743 113.715L69.6535 110.16C69.6535 110.16 71.0554 119.229 71.9306 126.006C71.9306 126.006 71.8686 115.163 70.9392 110.996L74.6956 112.328C74.6956 112.328 71.4968 106.829 66.0519 105.574C60.607 104.32 57.4082 106.604 57.4082 106.604L57.4159 106.612Z" fill="black"/>
<path d="M61.1803 89.2546C62.0478 94.2348 62.8223 103.343 59.2827 106.581L69.6536 109.462L74.7035 106.914C69.1967 105.473 69.429 101.368 70.4746 97.5343L61.1803 89.2546Z" fill="#B97964"/>
<path opacity="0.2" d="M64.967 92.6313L70.4661 97.5341C70.2106 98.4248 70.0324 99.3387 69.9317 100.26C67.825 99.9119 64.9748 97.5264 64.7966 95.3112C64.6882 94.4128 64.7424 93.5066 64.967 92.6313Z" fill="black"/>
<path d="M68.5146 75.4135C66.2608 77.861 68.2048 80.6571 75.4002 84.0573C77.1119 80.2853 76.0663 73.9884 73.7427 72.8886C71.4191 71.7887 70.4819 73.2913 68.5146 75.4135Z" fill="#2E353A"/>
<path d="M58.1589 83.1123C59.9868 89.5951 60.7303 93.4755 64.7734 96.1321C70.8611 100.121 78.3198 95.3576 78.467 88.4566C78.5909 82.2603 75.5858 72.6949 68.5918 71.4789C63.5961 70.5805 58.825 73.9032 57.9265 78.8989C57.6787 80.3008 57.7561 81.7414 58.1589 83.1123Z" fill="#B97964"/>
<path d="M68.3594 82.7871C68.4756 83.3215 68.8551 83.6933 69.2036 83.6159C69.5522 83.5384 69.738 83.0505 69.6219 82.516C69.5057 81.9816 69.1339 81.6098 68.7854 81.6795C68.4368 81.7492 68.2819 82.2527 68.3594 82.7871Z" fill="#2E353A"/>
<path d="M74.4388 81.4783C74.555 82.0127 74.9345 82.3845 75.283 82.307C75.6316 82.2296 75.8252 81.7416 75.709 81.1995C75.5928 80.6573 75.2133 80.2933 74.8648 80.3707C74.5163 80.4482 74.3226 80.9439 74.4388 81.4783Z" fill="#2E353A"/>
<path d="M72.5107 82.1604C73.5021 83.6552 74.6949 85.0107 76.0581 86.1802C75.2835 87.2723 73.6028 87.2103 73.6028 87.2103L72.5107 82.1604Z" fill="#A24E3F"/>
<path d="M66.2835 81.2306C66.2137 81.2539 66.144 81.2539 66.0743 81.2306C65.9117 81.1532 65.842 80.9673 65.9117 80.8046C66.3222 79.852 67.1742 79.1626 68.1888 78.9535C68.3592 78.9225 68.5218 79.031 68.5528 79.2014C68.5528 79.2014 68.5528 79.2169 68.5528 79.2246C68.5683 79.395 68.4521 79.5576 68.2817 79.5886C67.484 79.7668 66.8179 80.3167 66.5003 81.068C66.4539 81.1532 66.3764 81.2074 66.2835 81.2306Z" fill="#2E353A"/>
<path d="M76.7633 78.8294C76.6393 78.8527 76.5154 78.8062 76.438 78.7133C75.95 78.0549 75.1832 77.6677 74.3622 77.6754C74.1841 77.6909 74.0292 77.5592 74.0137 77.3811C73.9982 77.2029 74.1299 77.0558 74.3003 77.0325C75.3381 77.0093 76.3218 77.4895 76.9414 78.3183C77.0498 78.4577 77.0266 78.659 76.8872 78.7675C76.8485 78.7985 76.8097 78.814 76.7633 78.8294Z" fill="#2E353A"/>
<path d="M59.5145 76.7228C62.814 77.1101 63.1548 80.5025 59.9018 87.7598C56.1453 86.0094 52.8381 80.5412 53.8992 78.2022C54.9603 75.8631 56.6333 76.3898 59.5145 76.7228Z" fill="#2E353A"/>
<path d="M56.1682 89.0451C56.9737 90.5399 58.3291 91.6553 59.9556 92.1432C62.1088 92.7706 63.2086 90.8498 62.6355 88.805C62.1166 86.9616 60.3661 84.4134 58.1974 84.6845C56.0288 84.9556 55.1923 87.2095 56.1682 89.0451Z" fill="#B97964"/>
<path d="M54.1935 77.6601C54.1935 77.6601 52.5593 75.5457 55.7658 71.3323C58.9723 67.1188 66.7254 65.8254 72.6892 66.9872C78.6531 68.149 75.1057 74.7324 72.9758 75.8323L73.2314 74.8021C73.2314 74.8021 69.5679 76.8004 65.8811 76.8004L67.0507 75.7006C67.0507 75.7006 57.6711 78.1326 54.1858 77.6601H54.1935Z" fill="#2E353A"/>
<path d="M73.2083 88.9917C73.0225 89.8514 72.9915 91.4004 72.9915 91.4004C72.8521 91.4237 72.7127 91.4469 72.5655 91.4624C70.6524 91.718 69.6765 91.1991 69.1808 90.5562C68.9097 90.1999 68.7858 89.7972 68.7238 89.4641C68.6541 89.0769 68.6929 88.7903 68.6929 88.7903C69.7849 89.2627 71.5896 89.1621 72.55 89.0691C72.9528 89.0304 73.2006 88.9917 73.2006 88.9917H73.2083Z" fill="#2E353A"/>
<path d="M72.55 89.0691L72.4648 89.7739C70.6602 90.0063 69.359 89.9288 68.7238 89.4641C68.6541 89.0769 68.6929 88.7903 68.6929 88.7903C69.7849 89.2627 71.5896 89.1621 72.55 89.0691Z" fill="white"/>
<path d="M72.5646 91.4625C70.6515 91.7181 69.6756 91.1992 69.1799 90.5563C69.8383 90.4944 70.636 90.4944 71.3641 90.6958C71.9218 90.8507 72.3013 91.145 72.5646 91.4625Z" fill="#A24E3F"/>
<path d="M61.0949 103.513C61.0949 103.513 66.687 107.711 69.6535 108.679C69.6535 108.679 71.0244 106.092 70.4667 103.955L74.7034 106.906C74.7034 106.906 75.5244 109.601 74.7034 112.335L69.6535 109.454L64.8746 112.939C64.8746 112.939 57.8187 110.894 57.4082 106.611L61.0872 103.513H61.0949Z" fill="#0A5960"/>
<path opacity="0.8" d="M61.0949 103.513C61.0949 103.513 66.687 107.711 69.6535 108.679C69.6535 108.679 71.0244 106.092 70.4667 103.955L74.7034 106.906C74.7034 106.906 75.5244 109.601 74.7034 112.335L69.6535 109.454L64.8746 112.939C64.8746 112.939 57.8187 110.894 57.4082 106.611L61.0872 103.513H61.0949Z" fill="white"/>
<path d="M153.402 143.24H76.2053C75.7048 143.24 75.2991 143.645 75.2991 144.146V146.415C75.2991 146.916 75.7048 147.321 76.2053 147.321H153.402C153.903 147.321 154.309 146.916 154.309 146.415V144.146C154.309 143.645 153.903 143.24 153.402 143.24Z" fill="#0A5960"/>
<path opacity="0.5" d="M154.046 144.045V146.315C154.046 146.818 153.907 147.221 153.411 147.221H76.206C75.7025 147.221 75.0442 146.818 75.0442 146.315V144.045C75.0442 143.55 75.7025 143.348 76.206 143.348H153.411C153.907 143.348 154.046 143.55 154.046 144.045Z" fill="white"/>
<path opacity="0.2" d="M107.574 144.045V146.315C107.574 146.818 107.404 147.221 106.908 147.221H76.206C75.7025 147.221 75.0442 146.818 75.0442 146.315V144.045C75.0442 143.55 75.7025 143.348 76.206 143.348H106.908C107.404 143.348 107.574 143.55 107.574 144.045Z" fill="black"/>
<path d="M59.8123 45.1763C58.4182 44.9208 57.0085 44.7891 55.5989 44.7813C54.8941 44.7813 54.197 44.8123 53.4999 44.8975C53.1591 44.9517 52.8106 44.9905 52.4698 45.0834C52.2994 45.1299 52.129 45.1531 51.9664 45.2151L51.4707 45.37L50.913 45.5481L51.246 45.0602C52.1832 43.6815 52.9423 42.1479 53.4689 40.5602C53.7323 39.7701 53.9337 38.9569 54.0498 38.1359C54.104 37.7254 54.1505 37.3149 54.166 36.9044C54.1815 36.4939 54.1815 36.0834 54.1428 35.6729C54.1195 35.2624 54.0498 34.8596 53.9724 34.4646L53.8252 33.876L53.6316 33.3028C53.4844 32.9311 53.3373 32.5516 53.1281 32.203C52.9423 31.839 52.7099 31.5137 52.4853 31.1806C52.2297 30.8708 51.9896 30.5378 51.6953 30.2512L51.2693 29.8175L50.8046 29.4147C50.5025 29.1359 50.154 28.919 49.8287 28.6712C49.4879 28.4388 49.1316 28.2297 48.783 28.0128L47.9775 27.5016L48.8373 27.0911C49.2478 26.8898 49.6815 26.6497 50.0997 26.4096C50.518 26.1617 50.9207 25.8984 51.3235 25.6273C52.1213 25.0851 52.8803 24.481 53.5929 23.8304C53.9491 23.5051 54.2899 23.1643 54.6152 22.8157C54.9405 22.4595 55.2503 22.1032 55.5447 21.7237C55.8312 21.3441 56.1101 20.9569 56.3502 20.5541C56.5903 20.1514 56.8381 19.7486 57.0318 19.3149C57.2409 18.8966 57.4035 18.4552 57.5584 18.0137L57.7598 17.3476L57.907 16.666C57.9767 16.209 58.0619 15.7443 58.0619 15.2796C58.0929 14.8149 58.0619 14.3502 58.0386 13.8854C57.9767 13.4207 57.938 12.956 57.8218 12.499L57.6669 11.8097L57.45 11.1359C57.3261 10.6789 57.1092 10.2529 56.9388 9.81144C56.7452 9.3777 56.5206 8.95946 56.3114 8.52572L55.2039 6.24087L57.3261 7.60403C57.6978 7.84414 58.1316 8.09199 58.5421 8.3166C58.9603 8.54121 59.3941 8.75808 59.8278 8.95171C60.6953 9.35447 61.586 9.69526 62.4922 9.97409C62.9491 10.1135 63.4061 10.2374 63.8631 10.3304C64.3201 10.4311 64.7848 10.5163 65.2495 10.5627C65.7142 10.6247 66.1789 10.6479 66.6359 10.6479C67.1006 10.6479 67.5576 10.6169 68.0068 10.555L68.6729 10.4388L69.3235 10.2684C69.7495 10.1212 70.1677 9.96634 70.5627 9.75722C70.7719 9.67202 70.95 9.54035 71.1436 9.42417C71.3373 9.31574 71.5232 9.18407 71.6936 9.03691C72.0576 8.77357 72.3751 8.44827 72.7004 8.13846C72.987 7.78992 73.3123 7.46462 73.5602 7.07736C73.839 6.71333 74.0714 6.31057 74.296 5.90007C74.5361 5.50507 74.6987 5.05584 74.9078 4.6376C75.086 4.20386 75.2409 3.75463 75.4113 3.31315L76.3872 0.772705L76.8596 3.42159C76.9294 3.8166 77.0533 4.27357 77.1927 4.69956C77.3321 5.13329 77.4948 5.55154 77.6806 5.96978C78.0447 6.79853 78.4939 7.58854 79.0438 8.30111C79.586 9.01367 80.2133 9.64879 80.9259 10.1832C81.2745 10.4543 81.654 10.6867 82.0412 10.8958C82.4285 11.1126 82.839 11.2753 83.2572 11.4379C83.6832 11.5696 84.1092 11.709 84.5507 11.7865C84.9844 11.8872 85.4414 11.9336 85.8829 11.9724C86.3321 11.9956 86.7891 12.0266 87.2461 11.9956C87.703 11.9956 88.16 11.9336 88.617 11.8949C89.0739 11.8484 89.5232 11.7478 89.9801 11.678L91.3356 11.3527L92.6755 10.95L93.9999 10.4775L95.8433 9.81918L94.7822 11.4534C94.5963 11.74 94.3949 12.0885 94.2168 12.4216C94.0387 12.7624 93.876 13.1032 93.7211 13.4517C93.419 14.1488 93.1712 14.8691 93.0008 15.6049C92.8304 16.3407 92.7374 17.0842 92.7452 17.8278C92.7529 18.5636 92.8769 19.2994 93.1247 19.9887L93.3338 20.4999L93.5894 20.9879C93.7831 21.2977 93.9844 21.6075 94.2323 21.8863C94.4569 22.1806 94.7435 22.4285 95.0068 22.6841C95.2934 22.9242 95.58 23.1643 95.9053 23.3657C96.2073 23.5903 96.5559 23.7607 96.8812 23.9543C97.2142 24.1402 97.5782 24.2873 97.919 24.45L99.0034 24.8605L100.119 25.209L100.916 25.4569L100.258 25.9603C99.8399 26.2856 99.4139 26.6729 99.0344 27.0756C98.6393 27.4784 98.2908 27.9121 97.9578 28.3614C97.7796 28.5782 97.6402 28.8183 97.493 29.0584C97.3304 29.2908 97.2142 29.5386 97.0903 29.7865C96.9586 30.0343 96.8424 30.2822 96.7495 30.5455C96.6566 30.8089 96.5404 31.0645 96.4939 31.3355C96.4397 31.6066 96.3467 31.87 96.3158 32.1488L96.2383 32.9775C96.2383 33.2564 96.2693 33.5352 96.2848 33.814C96.2848 34.0929 96.3622 34.3639 96.4242 34.635C96.5017 34.9061 96.5171 35.1927 96.6411 35.4483L96.9586 36.2306C97.0438 36.5016 97.222 36.734 97.3536 36.9818L97.7874 37.7177L97.9423 37.9887H97.648C96.5171 37.9887 95.3631 38.1436 94.2555 38.438C93.7056 38.6006 93.1634 38.7865 92.66 39.0653C92.5283 39.1273 92.4121 39.2125 92.296 39.2899C92.172 39.3596 92.0559 39.4448 91.9474 39.5455C91.839 39.6385 91.7151 39.7159 91.6221 39.8321L91.3278 40.1497L91.6066 39.8166C91.6918 39.7004 91.8158 39.6152 91.9165 39.5146C92.0249 39.4139 92.1333 39.3209 92.2572 39.2435C92.3812 39.1583 92.4896 39.0653 92.6213 38.9956C93.117 38.6858 93.6591 38.4612 94.2091 38.2676C95.3166 37.8958 96.4784 37.7099 97.6557 37.6557L97.5163 37.9268L97.0361 37.1832C96.8812 36.9354 96.6953 36.703 96.5868 36.4242L96.2228 35.6109C96.0834 35.3476 96.0524 35.0455 95.9595 34.759C95.882 34.4724 95.7891 34.1858 95.7813 33.8837C95.7581 33.5894 95.7116 33.2874 95.6961 32.9853L95.7426 32.0868C95.7581 31.7848 95.8433 31.4982 95.8975 31.1961C95.944 30.8941 96.0524 30.6152 96.1454 30.3287C96.2306 30.0421 96.339 29.7633 96.4784 29.4922C96.6023 29.2211 96.7263 28.9423 96.8812 28.6944C97.0283 28.4388 97.1755 28.1677 97.3536 27.9276C97.6867 27.4319 98.0584 26.9595 98.4612 26.5257C98.864 26.0765 99.2822 25.6738 99.7702 25.2787L99.9173 26.03L98.7478 25.697L97.5937 25.2865C97.222 25.1161 96.8347 24.9689 96.4707 24.783C96.1066 24.5894 95.7349 24.4113 95.3941 24.1712C95.0378 23.962 94.7048 23.6987 94.3794 23.4354C94.0696 23.1565 93.7443 22.8855 93.4733 22.5524C93.1867 22.2426 92.9388 21.8863 92.7065 21.53L92.3967 20.9646L92.1411 20.376C91.8313 19.5705 91.6686 18.7185 91.6376 17.8665C91.6066 17.0145 91.6918 16.1703 91.8622 15.3571C92.0326 14.5361 92.2805 13.7383 92.598 12.9715C92.7529 12.5842 92.9233 12.2125 93.1092 11.8407C93.3029 11.4689 93.481 11.1126 93.7288 10.7331L94.5111 11.709L93.1325 12.2125L91.7228 12.6462C91.2504 12.7701 90.7624 12.8863 90.2899 13.0025C89.802 13.0799 89.314 13.1884 88.8261 13.2426C88.3304 13.2891 87.8347 13.3588 87.3313 13.3665C86.8278 13.3975 86.3244 13.3665 85.8209 13.351C85.3175 13.3046 84.814 13.2581 84.3106 13.1496C83.8072 13.0645 83.3192 12.9095 82.8312 12.7624C82.351 12.5842 81.8708 12.3906 81.4216 12.1505C80.9646 11.9104 80.5232 11.6393 80.1127 11.3295C79.2839 10.7176 78.5559 9.98958 77.9285 9.18407C77.3011 8.37856 76.7899 7.4956 76.3794 6.58166C76.1703 6.12469 75.9844 5.65223 75.8295 5.17202C75.6669 4.68407 75.5352 4.2271 75.4345 3.67718L76.8829 3.78562C76.7047 4.26582 76.5421 4.75377 76.3485 5.22624C76.1238 5.69095 75.9535 6.1789 75.6824 6.62813C75.4345 7.0851 75.1789 7.54207 74.8614 7.96806C74.5825 8.40954 74.2108 8.80455 73.8777 9.20731C73.4982 9.57908 73.1187 9.9586 72.6772 10.2762C72.4681 10.4465 72.2512 10.5937 72.0111 10.7331C71.7787 10.8725 71.5619 11.0274 71.3063 11.1281C70.8261 11.376 70.3226 11.5619 69.8115 11.7323L69.0369 11.9336C68.7736 11.9879 68.5103 12.0188 68.2469 12.0653C67.7202 12.1273 67.1936 12.166 66.6669 12.1583C66.1402 12.1583 65.6213 12.1195 65.1101 12.0498C64.5911 11.9956 64.0877 11.8949 63.5843 11.7787C63.0808 11.6703 62.5851 11.5309 62.0972 11.376C61.1213 11.0662 60.1763 10.6944 59.2547 10.2607C58.7977 10.0438 58.3407 9.81144 57.8992 9.57133C57.45 9.32348 57.024 9.07564 56.5748 8.78132L57.5894 7.85963C57.814 8.32434 58.0541 8.78132 58.2555 9.25378C58.4414 9.73398 58.666 10.2064 58.7977 10.7099L59.03 11.4534L59.2004 12.2202C59.3244 12.7237 59.3708 13.2503 59.4328 13.7693C59.4638 14.2959 59.4948 14.8226 59.4483 15.3493C59.4405 15.876 59.3476 16.4027 59.2624 16.9139L59.092 17.6884L58.8596 18.4397C58.6815 18.9354 58.4956 19.4233 58.2555 19.888C58.0386 20.3605 57.7676 20.8097 57.4887 21.2435C57.2099 21.6772 56.8923 22.0954 56.5748 22.4982C56.2495 22.9009 55.9009 23.2805 55.5447 23.6522C55.1806 24.0163 54.8089 24.3725 54.4293 24.7056C53.6548 25.3794 52.8416 25.9913 51.9896 26.5412C51.5636 26.8201 51.1299 27.0834 50.6884 27.3312C50.2392 27.5791 49.8054 27.8114 49.3175 28.0283L49.3717 27.1066C49.7357 27.3545 50.1152 27.5791 50.4715 27.8347C50.8201 28.1135 51.1841 28.3536 51.5016 28.6634L51.9973 29.1049L52.4543 29.5929C52.7719 29.9027 53.0197 30.2822 53.2908 30.6307C53.5386 31.0025 53.7865 31.3743 53.9801 31.777C54.197 32.1643 54.3519 32.5903 54.5068 33.0085L54.7004 33.6514L54.8476 34.302C54.9173 34.7435 54.987 35.1772 55.0025 35.6264C55.0877 37.4001 54.7082 39.1428 54.104 40.7615C53.802 41.5748 53.438 42.3571 53.0197 43.1161C52.6015 43.8751 52.1522 44.6032 51.6256 45.3003L51.4009 44.9905L51.9276 44.8433C52.098 44.7891 52.2839 44.7658 52.4543 44.7271C52.8106 44.6497 53.1669 44.6264 53.5232 44.58C54.2357 44.518 54.9483 44.518 55.6608 44.549C57.0782 44.6342 58.4879 44.8433 59.8665 45.1686L59.8123 45.1763Z" fill="white"/>
<path opacity="0.7" d="M59.8123 45.1763C58.4182 44.9208 57.0085 44.7891 55.5989 44.7813C54.8941 44.7813 54.197 44.8123 53.4999 44.8975C53.1591 44.9517 52.8106 44.9905 52.4698 45.0834C52.2994 45.1299 52.129 45.1531 51.9664 45.2151L51.4707 45.37L50.913 45.5481L51.246 45.0602C52.1832 43.6815 52.9423 42.1479 53.4689 40.5602C53.7323 39.7701 53.9337 38.9569 54.0498 38.1359C54.104 37.7254 54.1505 37.3149 54.166 36.9044C54.1815 36.4939 54.1815 36.0834 54.1428 35.6729C54.1195 35.2624 54.0498 34.8596 53.9724 34.4646L53.8252 33.876L53.6316 33.3028C53.4844 32.9311 53.3373 32.5516 53.1281 32.203C52.9423 31.839 52.7099 31.5137 52.4853 31.1806C52.2297 30.8708 51.9896 30.5378 51.6953 30.2512L51.2693 29.8175L50.8046 29.4147C50.5025 29.1359 50.154 28.919 49.8287 28.6712C49.4879 28.4388 49.1316 28.2297 48.783 28.0128L47.9775 27.5016L48.8373 27.0911C49.2478 26.8898 49.6815 26.6497 50.0997 26.4096C50.518 26.1617 50.9207 25.8984 51.3235 25.6273C52.1213 25.0851 52.8803 24.481 53.5929 23.8304C53.9491 23.5051 54.2899 23.1643 54.6152 22.8157C54.9405 22.4595 55.2503 22.1032 55.5447 21.7237C55.8312 21.3441 56.1101 20.9569 56.3502 20.5541C56.5903 20.1514 56.8381 19.7486 57.0318 19.3149C57.2409 18.8966 57.4035 18.4552 57.5584 18.0137L57.7598 17.3476L57.907 16.666C57.9767 16.209 58.0619 15.7443 58.0619 15.2796C58.0929 14.8149 58.0619 14.3502 58.0386 13.8854C57.9767 13.4207 57.938 12.956 57.8218 12.499L57.6669 11.8097L57.45 11.1359C57.3261 10.6789 57.1092 10.2529 56.9388 9.81144C56.7452 9.3777 56.5206 8.95946 56.3114 8.52572L55.2039 6.24087L57.3261 7.60403C57.6978 7.84414 58.1316 8.09199 58.5421 8.3166C58.9603 8.54121 59.3941 8.75808 59.8278 8.95171C60.6953 9.35447 61.586 9.69526 62.4922 9.97409C62.9491 10.1135 63.4061 10.2374 63.8631 10.3304C64.3201 10.4311 64.7848 10.5163 65.2495 10.5627C65.7142 10.6247 66.1789 10.6479 66.6359 10.6479C67.1006 10.6479 67.5576 10.6169 68.0068 10.555L68.6729 10.4388L69.3235 10.2684C69.7495 10.1212 70.1677 9.96634 70.5627 9.75722C70.7719 9.67202 70.95 9.54035 71.1436 9.42417C71.3373 9.31574 71.5232 9.18407 71.6936 9.03691C72.0576 8.77357 72.3751 8.44827 72.7004 8.13846C72.987 7.78992 73.3123 7.46462 73.5602 7.07736C73.839 6.71333 74.0714 6.31057 74.296 5.90007C74.5361 5.50507 74.6987 5.05584 74.9078 4.6376C75.086 4.20386 75.2409 3.75463 75.4113 3.31315L76.3872 0.772705L76.8596 3.42159C76.9294 3.8166 77.0533 4.27357 77.1927 4.69956C77.3321 5.13329 77.4948 5.55154 77.6806 5.96978C78.0447 6.79853 78.4939 7.58854 79.0438 8.30111C79.586 9.01367 80.2133 9.64879 80.9259 10.1832C81.2745 10.4543 81.654 10.6867 82.0412 10.8958C82.4285 11.1126 82.839 11.2753 83.2572 11.4379C83.6832 11.5696 84.1092 11.709 84.5507 11.7865C84.9844 11.8872 85.4414 11.9336 85.8829 11.9724C86.3321 11.9956 86.7891 12.0266 87.2461 11.9956C87.703 11.9956 88.16 11.9336 88.617 11.8949C89.0739 11.8484 89.5232 11.7478 89.9801 11.678L91.3356 11.3527L92.6755 10.95L93.9999 10.4775L95.8433 9.81918L94.7822 11.4534C94.5963 11.74 94.3949 12.0885 94.2168 12.4216C94.0387 12.7624 93.876 13.1032 93.7211 13.4517C93.419 14.1488 93.1712 14.8691 93.0008 15.6049C92.8304 16.3407 92.7374 17.0842 92.7452 17.8278C92.7529 18.5636 92.8769 19.2994 93.1247 19.9887L93.3338 20.4999L93.5894 20.9879C93.7831 21.2977 93.9844 21.6075 94.2323 21.8863C94.4569 22.1806 94.7435 22.4285 95.0068 22.6841C95.2934 22.9242 95.58 23.1643 95.9053 23.3657C96.2073 23.5903 96.5559 23.7607 96.8812 23.9543C97.2142 24.1402 97.5782 24.2873 97.919 24.45L99.0034 24.8605L100.119 25.209L100.916 25.4569L100.258 25.9603C99.8399 26.2856 99.4139 26.6729 99.0344 27.0756C98.6393 27.4784 98.2908 27.9121 97.9578 28.3614C97.7796 28.5782 97.6402 28.8183 97.493 29.0584C97.3304 29.2908 97.2142 29.5386 97.0903 29.7865C96.9586 30.0343 96.8424 30.2822 96.7495 30.5455C96.6566 30.8089 96.5404 31.0645 96.4939 31.3355C96.4397 31.6066 96.3467 31.87 96.3158 32.1488L96.2383 32.9775C96.2383 33.2564 96.2693 33.5352 96.2848 33.814C96.2848 34.0929 96.3622 34.3639 96.4242 34.635C96.5017 34.9061 96.5171 35.1927 96.6411 35.4483L96.9586 36.2306C97.0438 36.5016 97.222 36.734 97.3536 36.9818L97.7874 37.7177L97.9423 37.9887H97.648C96.5171 37.9887 95.3631 38.1436 94.2555 38.438C93.7056 38.6006 93.1634 38.7865 92.66 39.0653C92.5283 39.1273 92.4121 39.2125 92.296 39.2899C92.172 39.3596 92.0559 39.4448 91.9474 39.5455C91.839 39.6385 91.7151 39.7159 91.6221 39.8321L91.3278 40.1497L91.6066 39.8166C91.6918 39.7004 91.8158 39.6152 91.9165 39.5146C92.0249 39.4139 92.1333 39.3209 92.2572 39.2435C92.3812 39.1583 92.4896 39.0653 92.6213 38.9956C93.117 38.6858 93.6591 38.4612 94.2091 38.2676C95.3166 37.8958 96.4784 37.7099 97.6557 37.6557L97.5163 37.9268L97.0361 37.1832C96.8812 36.9354 96.6953 36.703 96.5868 36.4242L96.2228 35.6109C96.0834 35.3476 96.0524 35.0455 95.9595 34.759C95.882 34.4724 95.7891 34.1858 95.7813 33.8837C95.7581 33.5894 95.7116 33.2874 95.6961 32.9853L95.7426 32.0868C95.7581 31.7848 95.8433 31.4982 95.8975 31.1961C95.944 30.8941 96.0524 30.6152 96.1454 30.3287C96.2306 30.0421 96.339 29.7633 96.4784 29.4922C96.6023 29.2211 96.7263 28.9423 96.8812 28.6944C97.0283 28.4388 97.1755 28.1677 97.3536 27.9276C97.6867 27.4319 98.0584 26.9595 98.4612 26.5257C98.864 26.0765 99.2822 25.6738 99.7702 25.2787L99.9173 26.03L98.7478 25.697L97.5937 25.2865C97.222 25.1161 96.8347 24.9689 96.4707 24.783C96.1066 24.5894 95.7349 24.4113 95.3941 24.1712C95.0378 23.962 94.7048 23.6987 94.3794 23.4354C94.0696 23.1565 93.7443 22.8855 93.4733 22.5524C93.1867 22.2426 92.9388 21.8863 92.7065 21.53L92.3967 20.9646L92.1411 20.376C91.8313 19.5705 91.6686 18.7185 91.6376 17.8665C91.6066 17.0145 91.6918 16.1703 91.8622 15.3571C92.0326 14.5361 92.2805 13.7383 92.598 12.9715C92.7529 12.5842 92.9233 12.2125 93.1092 11.8407C93.3029 11.4689 93.481 11.1126 93.7288 10.7331L94.5111 11.709L93.1325 12.2125L91.7228 12.6462C91.2504 12.7701 90.7624 12.8863 90.2899 13.0025C89.802 13.0799 89.314 13.1884 88.8261 13.2426C88.3304 13.2891 87.8347 13.3588 87.3313 13.3665C86.8278 13.3975 86.3244 13.3665 85.8209 13.351C85.3175 13.3046 84.814 13.2581 84.3106 13.1496C83.8072 13.0645 83.3192 12.9095 82.8312 12.7624C82.351 12.5842 81.8708 12.3906 81.4216 12.1505C80.9646 11.9104 80.5232 11.6393 80.1127 11.3295C79.2839 10.7176 78.5559 9.98958 77.9285 9.18407C77.3011 8.37856 76.7899 7.4956 76.3794 6.58166C76.1703 6.12469 75.9844 5.65223 75.8295 5.17202C75.6669 4.68407 75.5352 4.2271 75.4345 3.67718L76.8829 3.78562C76.7047 4.26582 76.5421 4.75377 76.3485 5.22624C76.1238 5.69095 75.9535 6.1789 75.6824 6.62813C75.4345 7.0851 75.1789 7.54207 74.8614 7.96806C74.5825 8.40954 74.2108 8.80455 73.8777 9.20731C73.4982 9.57908 73.1187 9.9586 72.6772 10.2762C72.4681 10.4465 72.2512 10.5937 72.0111 10.7331C71.7787 10.8725 71.5619 11.0274 71.3063 11.1281C70.8261 11.376 70.3226 11.5619 69.8115 11.7323L69.0369 11.9336C68.7736 11.9879 68.5103 12.0188 68.2469 12.0653C67.7202 12.1273 67.1936 12.166 66.6669 12.1583C66.1402 12.1583 65.6213 12.1195 65.1101 12.0498C64.5911 11.9956 64.0877 11.8949 63.5843 11.7787C63.0808 11.6703 62.5851 11.5309 62.0972 11.376C61.1213 11.0662 60.1763 10.6944 59.2547 10.2607C58.7977 10.0438 58.3407 9.81144 57.8992 9.57133C57.45 9.32348 57.024 9.07564 56.5748 8.78132L57.5894 7.85963C57.814 8.32434 58.0541 8.78132 58.2555 9.25378C58.4414 9.73398 58.666 10.2064 58.7977 10.7099L59.03 11.4534L59.2004 12.2202C59.3244 12.7237 59.3708 13.2503 59.4328 13.7693C59.4638 14.2959 59.4948 14.8226 59.4483 15.3493C59.4405 15.876 59.3476 16.4027 59.2624 16.9139L59.092 17.6884L58.8596 18.4397C58.6815 18.9354 58.4956 19.4233 58.2555 19.888C58.0386 20.3605 57.7676 20.8097 57.4887 21.2435C57.2099 21.6772 56.8923 22.0954 56.5748 22.4982C56.2495 22.9009 55.9009 23.2805 55.5447 23.6522C55.1806 24.0163 54.8089 24.3725 54.4293 24.7056C53.6548 25.3794 52.8416 25.9913 51.9896 26.5412C51.5636 26.8201 51.1299 27.0834 50.6884 27.3312C50.2392 27.5791 49.8054 27.8114 49.3175 28.0283L49.3717 27.1066C49.7357 27.3545 50.1152 27.5791 50.4715 27.8347C50.8201 28.1135 51.1841 28.3536 51.5016 28.6634L51.9973 29.1049L52.4543 29.5929C52.7719 29.9027 53.0197 30.2822 53.2908 30.6307C53.5386 31.0025 53.7865 31.3743 53.9801 31.777C54.197 32.1643 54.3519 32.5903 54.5068 33.0085L54.7004 33.6514L54.8476 34.302C54.9173 34.7435 54.987 35.1772 55.0025 35.6264C55.0877 37.4001 54.7082 39.1428 54.104 40.7615C53.802 41.5748 53.438 42.3571 53.0197 43.1161C52.6015 43.8751 52.1522 44.6032 51.6256 45.3003L51.4009 44.9905L51.9276 44.8433C52.098 44.7891 52.2839 44.7658 52.4543 44.7271C52.8106 44.6497 53.1669 44.6264 53.5232 44.58C54.2357 44.518 54.9483 44.518 55.6608 44.549C57.0782 44.6342 58.4879 44.8433 59.8665 45.1686L59.8123 45.1763Z" fill="white"/>
<path d="M90.0309 30.3676C87.746 21.995 78.7228 17.2626 70.4044 20.4382C63.9216 22.9167 59.987 29.7712 61.1101 36.6181C61.9775 41.9081 65.4939 46.0363 69.9629 47.9494C70.9465 48.3676 71.7598 49.1189 72.1935 50.1026L72.7047 51.2489L86.956 47.3685L86.8166 46.1293C86.6927 45.0527 87.018 43.9916 87.6608 43.1163C90.2478 39.5845 91.2624 34.9141 90.0231 30.3754L90.0309 30.3676Z" fill="#FFE5A1" fill-opacity="0.89"/>
<path d="M77.3671 51.272C77.3671 51.272 75.2217 44.5336 71.4265 41.5595L73.5255 40.9863L73.6881 37.7565L77.1115 42.7212L76.8327 36.6799L80.2174 42.1868L80.5582 39.0655L83.5556 38.2522C83.5556 38.2522 80.9067 43.2944 82.7191 49.9631" stroke="white" stroke-width="0.605762" stroke-linecap="round" stroke-linejoin="round"/>
<path d="M80.0629 50.1414C77.5379 50.8307 76.1283 53.7274 76.9183 56.6164C77.7083 59.5054 80.3882 61.2946 82.9131 60.6052C85.4381 59.9159 86.84 57.0192 86.0577 54.1302C85.2677 51.2412 82.5878 49.4521 80.0629 50.1414Z" fill="#2E353A"/>
<path d="M84.9276 57.9484L79.8467 59.3348C77.3294 60.0242 74.7038 58.6455 73.8363 56.1903L72.1711 51.4889C72.0317 51.0939 72.2563 50.6679 72.659 50.5594L86.6702 46.741C87.073 46.6326 87.4835 46.8882 87.5609 47.2987L88.5059 52.1937C89.0016 54.7574 87.437 57.2669 84.9198 57.9562L84.9276 57.9484Z" fill="#0A5960"/>
<path d="M84.9276 57.9484L79.8467 59.3348C77.3294 60.0242 74.7038 58.6455 73.8363 56.1903L72.1711 51.4889C72.0317 51.0939 72.2563 50.6679 72.659 50.5594L86.6702 46.741C87.073 46.6326 87.4835 46.8882 87.5609 47.2987L88.5059 52.1937C89.0016 54.7574 87.437 57.2669 84.9198 57.9562L84.9276 57.9484Z" fill="#C7E0DE"/>
</g>
<defs>
<clipPath id="clip0_103_1900">
<rect width="300.346" height="276.227" fill="white" transform="translate(0 0.772705)"/>
</clipPath>
</defs>
</svg>
