<svg width="156" height="36" viewBox="0 0 156 36" fill="none" xmlns="http://www.w3.org/2000/svg">
<path d="M12.4667 9.178L12.47 9.17933C12.5393 8.884 12.7913 8.66667 13.1067 8.66667H22.088C22.0993 8.66667 22.1107 8.662 22.122 8.66267C21.9307 5.47667 19.258 4 16.9 4H7.91866C7.60266 4 7.35066 4.22333 7.28199 4.518L7.27866 4.51667L3.35266 22.542L3.36133 22.5427C3.35199 22.5853 3.33533 22.626 3.33533 22.672C3.33533 23.0407 3.63333 23.3327 4.00199 23.3327H9.38266L12.4667 9.178Z" fill="#1565C0"/>
<path d="M22.122 8.66272C22.1573 9.24672 22.1187 9.88205 21.9693 10.5841C21.1153 14.5807 18.028 16.6607 14.2127 16.6607C14.2127 16.6607 11.8993 16.6607 11.3373 16.6607C10.99 16.6607 10.826 16.8647 10.7507 17.0207L9.59065 22.3867L9.38732 23.3394H9.38332L8.54132 27.2034L8.54999 27.2041C8.54065 27.2467 8.52399 27.2874 8.52399 27.3334C8.52399 27.7021 8.82199 28.0001 9.19065 28.0001H14.0793L14.088 27.9934C14.4027 27.9887 14.6527 27.7641 14.718 27.4681L14.73 27.4581L15.938 21.8474C15.938 21.8474 16.022 21.3121 16.5847 21.3121C17.1473 21.3121 19.37 21.3121 19.37 21.3121C23.1853 21.3121 26.304 19.2414 27.1587 15.2441C28.12 10.7374 24.9053 8.67939 22.122 8.66272Z" fill="#039BE5"/>
<path d="M13.1067 8.66666C12.7907 8.66666 12.5387 8.88399 12.47 9.17933L12.4667 9.17799L10.75 17.0213C10.8253 16.8653 10.9893 16.6613 11.3367 16.6613C11.8993 16.6613 14.16 16.6613 14.16 16.6613C17.9753 16.6613 21.1147 14.5813 21.9687 10.5847C22.1187 9.88266 22.1567 9.24733 22.1213 8.66333C22.1107 8.66199 22.0987 8.66666 22.088 8.66666H13.1067Z" fill="#283593"/>
<path d="M60.64 11.96C60.4053 13.3253 59.872 14.5733 59.04 15.704C58.2293 16.8133 57.1307 17.7093 55.744 18.392C54.3573 19.0533 52.7467 19.384 50.912 19.384H47.808L46.464 27H40.16L44.16 4.44H53.536C55.904 4.44 57.7067 4.984 58.944 6.072C60.1813 7.13867 60.8 8.57867 60.8 10.392C60.8 10.84 60.7467 11.3627 60.64 11.96ZM51.2 14.424C52.9707 14.424 53.9947 13.6027 54.272 11.96C54.3147 11.6613 54.336 11.448 54.336 11.32C54.336 10.744 54.144 10.296 53.76 9.976C53.3973 9.63467 52.832 9.464 52.064 9.464H49.568L48.704 14.424H51.2ZM61.0798 18.008C61.4211 16.152 62.0504 14.5307 62.9678 13.144C63.8851 11.7573 64.9838 10.6907 66.2638 9.944C67.5651 9.19733 68.9304 8.824 70.3598 8.824C71.5971 8.824 72.6211 9.06933 73.4318 9.56C74.2424 10.0507 74.8078 10.712 75.1278 11.544L75.5758 9.048H81.8478L78.6798 27H72.4078L72.8558 24.504C72.2371 25.336 71.4264 25.9973 70.4238 26.488C69.4211 26.9787 68.3118 27.224 67.0958 27.224C65.2184 27.224 63.7144 26.6053 62.5838 25.368C61.4531 24.1093 60.8878 22.4027 60.8878 20.248C60.8878 19.544 60.9518 18.7973 61.0798 18.008ZM74.0078 18.008C74.0718 17.688 74.1038 17.3893 74.1038 17.112C74.1038 16.216 73.8478 15.5227 73.3358 15.032C72.8451 14.5413 72.2051 14.296 71.4158 14.296C70.4771 14.296 69.6344 14.6267 68.8878 15.288C68.1411 15.928 67.6718 16.8347 67.4798 18.008C67.4158 18.328 67.3838 18.6373 67.3838 18.936C67.3838 19.832 67.6291 20.5253 68.1198 21.016C68.6318 21.5067 69.2824 21.752 70.0718 21.752C71.0104 21.752 71.8531 21.4213 72.5998 20.76C73.3464 20.0987 73.8158 19.1813 74.0078 18.008ZM90.4778 9.048L92.4298 19.224L97.8698 9.048H104.75L88.7178 35.544H81.9017L87.8218 26.232L83.5018 9.048H90.4778Z" fill="#002784"/>
<path d="M123.703 11.96C123.468 13.3253 122.935 14.5733 122.103 15.704C121.292 16.8133 120.193 17.7093 118.807 18.392C117.42 19.0533 115.809 19.384 113.975 19.384H110.871L109.527 27H103.223L107.223 4.44H116.599C118.967 4.44 120.769 4.984 122.007 6.072C123.244 7.13867 123.863 8.57867 123.863 10.392C123.863 10.84 123.809 11.3627 123.703 11.96ZM114.263 14.424C116.033 14.424 117.057 13.6027 117.335 11.96C117.377 11.6613 117.399 11.448 117.399 11.32C117.399 10.744 117.207 10.296 116.823 9.976C116.46 9.63467 115.895 9.464 115.127 9.464H112.631L111.767 14.424H114.263ZM124.142 18.008C124.484 16.152 125.113 14.5307 126.03 13.144C126.948 11.7573 128.046 10.6907 129.326 9.944C130.628 9.19733 131.993 8.824 133.422 8.824C134.66 8.824 135.684 9.06933 136.494 9.56C137.305 10.0507 137.87 10.712 138.19 11.544L138.638 9.048H144.91L141.742 27H135.47L135.918 24.504C135.3 25.336 134.489 25.9973 133.486 26.488C132.484 26.9787 131.374 27.224 130.158 27.224C128.281 27.224 126.777 26.6053 125.646 25.368C124.516 24.1093 123.95 22.4027 123.95 20.248C123.95 19.544 124.014 18.7973 124.142 18.008ZM137.07 18.008C137.134 17.688 137.166 17.3893 137.166 17.112C137.166 16.216 136.91 15.5227 136.398 15.032C135.908 14.5413 135.268 14.296 134.478 14.296C133.54 14.296 132.697 14.6267 131.95 15.288C131.204 15.928 130.734 16.8347 130.542 18.008C130.478 18.328 130.446 18.6373 130.446 18.936C130.446 19.832 130.692 20.5253 131.182 21.016C131.694 21.5067 132.345 21.752 133.134 21.752C134.073 21.752 134.916 21.4213 135.662 20.76C136.409 20.0987 136.878 19.1813 137.07 18.008ZM155.812 3.32L151.62 27H145.316L149.508 3.32H155.812Z" fill="#009CDE"/>
</svg>
