<svg width="55" height="22" viewBox="0 0 55 22" fill="none" xmlns="http://www.w3.org/2000/svg">
<g clip-path="url(#clip0_2042_1054)">
<path d="M25.5152 10.5811V16.9276H23.4902V1.23206H28.7552C30.0377 1.23206 31.2527 1.70975 32.1977 2.59689C33.1427 3.41578 33.6152 4.64413 33.6152 5.94072C33.6152 7.2373 33.1427 8.39741 32.1977 9.28455C31.2527 10.1717 30.1052 10.6494 28.7552 10.6494L25.5152 10.5811ZM25.5152 3.14282V8.60213H28.8902C29.6327 8.60213 30.3752 8.32917 30.8477 7.78324C31.9277 6.75961 31.9277 5.05358 30.9152 4.02996L30.8477 3.96171C30.3077 3.41578 29.6327 3.07458 28.8902 3.14282H25.5152Z" fill="#FAFAFA"/>
<path d="M38.2727 5.87244C39.7577 5.87244 40.9052 6.28189 41.7827 7.10078C42.6602 7.91968 43.0652 9.01154 43.0652 10.3764V16.9276H41.1752V15.4262H41.1077C40.2977 16.6546 39.1502 17.2688 37.8002 17.2688C36.6527 17.2688 35.6402 16.9276 34.8302 16.2451C34.0877 15.5627 33.6152 14.6073 33.6152 13.5837C33.6152 12.4919 34.0202 11.6047 34.8302 10.9223C35.6402 10.2399 36.7877 9.96692 38.1377 9.96692C39.3527 9.96692 40.2977 10.1716 41.0402 10.6493V10.1716C41.0402 9.48923 40.7702 8.80682 40.2302 8.39737C39.6902 7.91968 39.0152 7.64671 38.2727 7.64671C37.1252 7.64671 36.2477 8.1244 35.6402 9.07979L33.8852 7.98792C34.9652 6.55485 36.3827 5.87244 38.2727 5.87244ZM35.7077 13.652C35.7077 14.1979 35.9777 14.6756 36.3827 14.9486C36.8552 15.2898 37.3952 15.4945 37.9352 15.4945C38.7452 15.4945 39.5552 15.1533 40.1627 14.5391C40.8377 13.9249 41.1752 13.1743 41.1752 12.3554C40.5677 11.8777 39.6902 11.6047 38.5427 11.6047C37.7327 11.6047 37.0577 11.8094 36.5177 12.2189C35.9777 12.5601 35.7077 13.0378 35.7077 13.652Z" fill="#FAFAFA"/>
<path d="M53.9998 6.21375L47.3173 21.7046H45.2923L47.7898 16.3135L43.4023 6.28199H45.5623L48.7348 13.9933H48.8023L51.9073 6.28199H53.9998V6.21375Z" fill="#FAFAFA"/>
<path d="M17.4827 9.2163C17.4827 8.60213 17.4152 7.98795 17.3477 7.37378H8.91016V10.8541H13.7027C13.5002 11.946 12.8927 12.9696 11.9477 13.5838V15.8357H14.8502C16.5377 14.2662 17.4827 11.946 17.4827 9.2163Z" fill="#4285F4"/>
<path d="M8.91007 18.0195C11.3401 18.0195 13.3651 17.2006 14.8501 15.8358L11.9476 13.5838C11.1376 14.1297 10.1251 14.4709 8.91007 14.4709C6.61507 14.4709 4.59007 12.9014 3.91507 10.7177H0.945068V13.0379C2.49757 16.1087 5.53507 18.0195 8.91007 18.0195Z" fill="#34A853"/>
<path d="M3.91503 10.7176C3.51003 9.62578 3.51003 8.39743 3.91503 7.23732V4.91711H0.945029C-0.337471 7.44205 -0.337471 10.4447 0.945029 13.0378L3.91503 10.7176Z" fill="#FBBC04"/>
<path d="M8.90995 3.55223C10.1925 3.55223 11.4075 4.02992 12.3525 4.91706L14.9175 2.32388C13.2975 0.822569 11.1375 -0.06457 8.97745 0.00367149C5.60245 0.00367149 2.49745 1.91443 1.01245 4.9853L3.98245 7.30551C4.58995 5.12178 6.61495 3.55223 8.90995 3.55223Z" fill="#EA4335"/>
</g>
<defs>
<clipPath id="clip0_2042_1054">
<rect width="55" height="22" fill="white"/>
</clipPath>
</defs>
</svg>
