<svg width="64" height="26" viewBox="0 0 64 26" fill="none" xmlns="http://www.w3.org/2000/svg">
<g clip-path="url(#clip0_2052_703)">
<path d="M11.7002 3.35205C10.9502 4.23026 9.75018 4.92293 8.55017 4.82398C8.40018 3.63654 8.98767 2.37488 9.67517 1.59562C10.4252 0.692674 11.7377 0.0494767 12.8002 0C12.9252 1.23692 12.4377 2.4491 11.7002 3.35205ZM12.7877 5.05899C11.0502 4.96004 9.56268 6.03616 8.73767 6.03616C7.90018 6.03616 6.63767 5.10847 5.26267 5.13321C3.47518 5.15794 1.81268 6.15985 0.900176 7.75547C-0.974824 10.9467 0.412676 15.6717 2.22518 18.2693C3.11268 19.5557 4.17518 20.9657 5.57517 20.9163C6.90018 20.8668 7.42517 20.0628 9.02517 20.0628C10.6377 20.0628 11.1002 20.9163 12.5002 20.8915C13.9502 20.8668 14.8627 19.6051 15.7502 18.3187C16.7627 16.8592 17.1752 15.4367 17.2002 15.3625C17.1752 15.3378 14.4002 14.2864 14.3752 11.1199C14.3502 8.47288 16.5627 7.21123 16.6627 7.13701C15.4127 5.30638 13.4627 5.10847 12.7877 5.05899ZM22.8252 1.47193V20.7555H25.8502V14.1627H30.0377C33.8627 14.1627 36.5502 11.5652 36.5502 7.80495C36.5502 4.04472 33.9127 1.47193 30.1377 1.47193H22.8252ZM25.8502 3.99524H29.3377C31.9627 3.99524 33.4627 5.38059 33.4627 7.81732C33.4627 10.254 31.9627 11.6518 29.3252 11.6518H25.8502V3.99524ZM42.0752 20.9039C43.9752 20.9039 45.7377 19.9515 46.5377 18.4424H46.6002V20.7555H49.4002V11.157C49.4002 8.37393 47.1502 6.5804 43.6877 6.5804C40.4752 6.5804 38.1002 8.39867 38.0127 10.8972H40.7377C40.9627 9.7098 42.0752 8.93054 43.6002 8.93054C45.4502 8.93054 46.4877 9.78402 46.4877 11.3549V12.4186L42.7127 12.6413C39.2002 12.8516 37.3002 14.274 37.3002 16.7479C37.3002 19.2464 39.2627 20.9039 42.0752 20.9039ZM42.8877 18.6156C41.2752 18.6156 40.2502 17.8487 40.2502 16.6736C40.2502 15.4615 41.2377 14.7564 43.1252 14.6451L46.4877 14.4348V15.5233C46.4877 17.3292 44.9377 18.6156 42.8877 18.6156ZM53.1377 26C56.0877 26 57.4752 24.8868 58.6877 21.51L64.0002 6.76594H60.9252L57.3627 18.1579H57.3002L53.7377 6.76594H50.5752L55.7002 20.8049L55.4252 21.6584C54.9627 23.1056 54.2127 23.6622 52.8752 23.6622C52.6377 23.6622 52.1752 23.6375 51.9877 23.6127V25.9258C52.1627 25.9753 52.9127 26 53.1377 26Z" fill="#2F2F2F"/>
</g>
<defs>
<clipPath id="clip0_2052_703">
<rect width="64" height="26" fill="white"/>
</clipPath>
</defs>
</svg>
